<?xml version="1.0" encoding="utf-8"?>
<!-- Generator: Adobe Illustrator 17.1.0, SVG Export Plug-In . SVG Version: 6.00 Build 0)  -->
<!DOCTYPE svg PUBLIC "-//W3C//DTD SVG 1.1//EN" "http://www.w3.org/Graphics/SVG/1.1/DTD/svg11.dtd">
<svg version="1.1" id="Layer_1" xmlns="http://www.w3.org/2000/svg" xmlns:xlink="http://www.w3.org/1999/xlink" x="0px" y="0px"
	 viewBox="0 199.6 840.8 556.3" enable-background="new 0 199.6 840.8 556.3" xml:space="preserve">
<g>
	<path fill="#FFFFFF" d="M514,466.2H326.8c-8.4,0-15.2-6.8-15.2-15.2V263.9c0-8.4,6.8-15.2,15.2-15.2H514c8.4,0,15.2,6.8,15.2,15.2
		v187.2C529.2,459.4,522.4,466.2,514,466.2z M326.8,258.8c-2.8,0-5.1,2.3-5.1,5.1v187.2c0,2.8,2.3,5.1,5.1,5.1H514
		c2.8,0,5.1-2.3,5.1-5.1V263.9c0-2.8-2.3-5.1-5.1-5.1H326.8z"/>
</g>
<g>
	<path fill="#FFFFFF" d="M368.1,382.7c-1.3,0-2.6-0.5-3.6-1.5c-2-2-2-5.2,0-7.2l52.3-52.3c1.9-1.9,5.3-1.9,7.2,0l52.3,52.3
		c2,2,2,5.2,0,7.2c-2,2-5.2,2-7.2,0l-48.7-48.7l-48.7,48.7C370.7,382.2,369.4,382.7,368.1,382.7z"/>
</g>
<g>
	<path fill="#FFFFFF" d="M514,713.4H326.8c-8.4,0-15.2-6.8-15.2-15.2V511c0-8.4,6.8-15.2,15.2-15.2H514c8.4,0,15.2,6.8,15.2,15.2
		v187.2C529.2,706.6,522.4,713.4,514,713.4z M326.8,506c-2.8,0-5.1,2.3-5.1,5.1v187.2c0,2.8,2.3,5.1,5.1,5.1H514
		c2.8,0,5.1-2.3,5.1-5.1V511c0-2.8-2.3-5.1-5.1-5.1H326.8z"/>
</g>
<g>
	<path fill="#FFFFFF" d="M420.4,635.8c-1.3,0-2.6-0.5-3.6-1.5l-52.3-52.3c-2-2-2-5.2,0-7.2c2-2,5.2-2,7.2,0l48.7,48.7l48.7-48.7
		c2-2,5.2-2,7.2,0c2,2,2,5.2,0,7.2L424,634.3C423,635.3,421.8,635.8,420.4,635.8z"/>
</g>
<g>
	<path fill="#FFFFFF" d="M765.7,712.9H578.6c-8.4,0-15.2-6.8-15.2-15.2V510.5c0-8.4,6.8-15.2,15.2-15.2h187.2
		c8.4,0,15.2,6.8,15.2,15.2v187.2C780.9,706.1,774.1,712.9,765.7,712.9z M578.6,505.5c-2.8,0-5.1,2.3-5.1,5.1v187.2
		c0,2.8,2.3,5.1,5.1,5.1h187.2c2.8,0,5.1-2.3,5.1-5.1V510.5c0-2.8-2.3-5.1-5.1-5.1H578.6z"/>
</g>
<g>
	<path fill="#FFFFFF" d="M654.6,656.5c-1.2,0-2.4-0.4-3.3-1.4c-1.8-1.8-1.8-4.7,0-6.5l44.5-44.5l-44.5-44.5c-1.8-1.8-1.8-4.7,0-6.5
		c1.8-1.8,4.7-1.8,6.5,0l47.7,47.7c1.8,1.8,1.8,4.7,0,6.5l-47.7,47.7C656.9,656,655.8,656.5,654.6,656.5z"/>
</g>
<g>
	<path fill="#FFFFFF" d="M257.9,712.9H70.7c-8.4,0-15.2-6.8-15.2-15.2V510.5c0-8.4,6.8-15.2,15.2-15.2h187.2
		c8.4,0,15.2,6.8,15.2,15.2v187.2C273,706.1,266.2,712.9,257.9,712.9z M70.7,505.5c-2.8,0-5.1,2.3-5.1,5.1v187.2
		c0,2.8,2.3,5.1,5.1,5.1h187.2c2.8,0,5.1-2.3,5.1-5.1V510.5c0-2.8-2.3-5.1-5.1-5.1H70.7z"/>
</g>
<g>
	<path fill="#FFFFFF" d="M188.1,656.5c-1.2,0-2.4-0.4-3.3-1.4l-47.7-47.7c-1.8-1.8-1.8-4.7,0-6.5l47.7-47.7c1.8-1.8,4.7-1.8,6.5,0
		c1.8,1.8,1.8,4.7,0,6.5l-44.5,44.5l44.5,44.5c1.8,1.8,1.8,4.7,0,6.5C190.5,656,189.3,656.5,188.1,656.5z"/>
</g>
</svg>
