<?xml version="1.0" encoding="utf-8"?>
<!-- Generator: Adobe Illustrator 17.1.0, SVG Export Plug-In . SVG Version: 6.00 Build 0)  -->
<!DOCTYPE svg PUBLIC "-//W3C//DTD SVG 1.1//EN" "http://www.w3.org/Graphics/SVG/1.1/DTD/svg11.dtd">
<svg version="1.1" id="Layer_1" xmlns="http://www.w3.org/2000/svg" xmlns:xlink="http://www.w3.org/1999/xlink" x="0px" y="0px"
	 viewBox="224.7 181.6 409.5 612" enable-background="new 224.7 181.6 409.5 612" xml:space="preserve">
<g>
	<path fill="#FFFFFF" d="M543.6,532.3c-4.7-2.1-9.7-3.1-14.7-3.3c8.7-21.6-1.4-46.6-23.2-56.3c-6.8-3-13.8-4-20.7-3.6
		c-0.4-4-1.2-8-2.7-11.9c-4.3-10.9-12.6-19.5-23.3-24.2c-4.6-2.1-9.5-3.1-14.4-3.5L472,368c4.8-10.7,5-22.6,0.6-33.6
		c-4.3-10.8-12.6-19.4-23.3-24.2c-10.7-4.8-22.7-5.1-33.6-1.1c-11,4.1-19.7,12.3-24.5,23l-66.9,150.7l-0.3-2.4
		c-2.6-25.3-25.3-44.1-51.1-42.1c-16.1,1.4-36.4,10.6-42,46.7c-0.2,1.4-21.5,141.4,16.2,224.6c2.5,5.5,7.9,8.7,13.5,8.7
		c2,0,4.1-0.4,6.1-1.3c7.5-3.4,10.7-12.1,7.4-19.6c-28.3-62.4-19.6-171.2-13.9-207.8c3.2-20.7,10.8-21.4,15.3-21.7
		c9.5-0.9,18.2,6.2,19.2,15.6l5.7,53.3l-14.4,32.3c-3.3,7.5,0.1,16.2,7.5,19.5c1.9,0.9,4,1.3,6,1.3c5.7,0,11.1-3.3,13.5-8.8
		l105.3-237c1.5-3.4,4.3-5.9,7.8-7.3c3.6-1.4,7.6-1.2,11.2,0.4c3.6,1.6,6.4,4.5,7.8,8.1c1.4,3.5,1.3,7.3-0.2,10.6L377,509
		c-3.3,7.5,0.1,16.2,7.5,19.5c7.5,3.3,16.2-0.1,19.5-7.5l24-54c0,0,0,0,0,0c1.5-3.4,4.3-5.9,7.8-7.2c3.7-1.4,7.6-1.2,11.2,0.4
		c3.6,1.6,6.4,4.5,7.8,8.1c1.4,3.5,1.3,7.3-0.2,10.6l-7,15.8l0,0l-20.3,45.6c-3.3,7.5,0.1,16.2,7.5,19.5c7.5,3.3,16.2-0.1,19.5-7.5
		l20.3-45.6c3.1-7.1,11.7-10.1,19-6.9c7.4,3.3,10.8,11.7,7.7,18.7l-25.7,57.8c-3.3,7.5,0,16.2,7.5,19.5c1.9,0.9,4,1.3,6,1.3
		c5.7,0,11.1-3.3,13.5-8.8l7.9-17.8c0,0,0,0,0-0.1c2.1-4.8,5.7-8.6,10.1-10.6c2.2-1,6.4-2.3,10.8-0.4c7.2,3.2,9.9,13.7,5.8,22.9
		c-0.1,0.3-0.3,0.7-0.4,1c-0.4,1.2-43.6,119.7-116.8,184.4c-6.1,5.4-6.7,14.8-1.3,20.9c2.9,3.3,7,5,11.1,5c3.5,0,7-1.2,9.8-3.7
		c77.3-68.3,121.3-186.3,124.9-196.1C575.1,569.6,565.7,542.1,543.6,532.3z"/>
	<path fill="#FFFFFF" d="M631.8,227.1l-25.7-38.8c-4.5-6.8-13.7-8.7-20.5-4.2c-6.8,4.5-8.7,13.7-4.2,20.5l6.7,10.1
		c-100.6-21.1-209.3-20-300.8,3.4c-7.9,2-12.7,10.1-10.7,18c1.7,6.7,7.7,11.1,14.3,11.1c1.2,0,2.4-0.1,3.7-0.5
		c86.7-22.2,189.8-23.1,285.5-3.3l-7.6,5.1c-6.8,4.5-8.7,13.7-4.2,20.5c2.9,4.3,7.6,6.7,12.4,6.7c2.8,0,5.6-0.8,8.1-2.4l38.8-25.6
		c3.3-2.2,5.6-5.5,6.3-9.4C634.7,234.3,633.9,230.3,631.8,227.1z"/>
</g>
</svg>
